<svg width="110" height="102" viewBox="0 0 110 102" fill="none" xmlns="http://www.w3.org/2000/svg">
<path d="M104.211 41.6426H87.4792C73.7581 41.6426 62.5844 31.8294 62.5844 19.779V5.08457C62.5844 2.28805 59.9791 0 56.7949 0H32.2475C14.4158 0 0 10.1691 0 28.321V73.3703C0 91.5222 14.4158 101.691 32.2475 101.691H77.7528C95.5845 101.691 110 91.5222 110 73.3703V46.7272C110 43.9306 107.395 41.6426 104.211 41.6426ZM52.2791 58.625C51.4107 59.3877 50.3107 59.7436 49.2107 59.7436C48.1107 59.7436 47.0107 59.3877 46.1422 58.625L41.9738 54.9642V76.2685C41.9738 78.3532 40.0054 80.0819 37.6317 80.0819C35.258 80.0819 33.2896 78.3532 33.2896 76.2685V54.9642L29.1211 58.625C27.4422 60.0996 24.6632 60.0996 22.9843 58.625C21.3053 57.1505 21.3053 54.7099 22.9843 53.2354L34.5633 43.0663C34.9685 42.7612 35.3738 42.507 35.8369 42.3036C35.9527 42.2527 36.1264 42.2019 36.2422 42.151C36.5896 42.0494 36.9369 41.9985 37.3422 41.9477H37.8054C38.2685 41.9477 38.7317 42.0494 39.1948 42.2019H39.3106C39.7738 42.3544 40.237 42.6595 40.5843 42.9646C40.6422 43.0154 40.7001 43.0154 40.7001 43.0663L52.2791 53.2354C53.958 54.7099 53.958 57.1505 52.2791 58.625Z" fill="#292D32"/>
<path d="M86.4355 34.6313C91.9355 34.6821 99.5776 34.6821 106.12 34.6821C109.42 34.6821 111.157 31.2754 108.841 29.2416C100.504 21.869 85.5671 8.59828 76.9986 1.07312C74.6249 -1.01155 70.5144 0.412128 70.5144 3.31033V21.0555C70.5144 28.4789 77.6934 34.6313 86.4355 34.6313Z" fill="#292D32"/>
</svg>
