<svg width="149" height="119" viewBox="0 0 149 119" fill="none" xmlns="http://www.w3.org/2000/svg">
<path d="M105.538 0H43.2119C16.1394 0 0 12.9115 0 34.5695V84.371C0 106.089 16.1394 119 43.2119 119H105.464C132.536 119 148.676 106.089 148.676 84.4305V34.5695C148.75 12.9115 132.611 0 105.538 0ZM88.655 84.0735H52.0625C49.0131 84.0735 46.4844 82.0505 46.4844 79.611C46.4844 77.1715 49.0131 75.1485 52.0625 75.1485H88.655C98.175 75.1485 105.984 68.9605 105.984 61.285C105.984 53.6095 98.2494 47.4215 88.655 47.4215H50.9469L52.8806 48.9685C55.0375 50.7535 55.0375 53.55 52.8062 55.335C51.6906 56.2275 50.2775 56.644 48.8644 56.644C47.4512 56.644 46.0381 56.2275 44.9225 55.335L33.2456 45.934C31.0887 44.2085 31.0887 41.3525 33.2456 39.627L44.9225 30.2855C47.0794 28.56 50.6494 28.56 52.8062 30.2855C54.9631 32.011 54.9631 34.867 52.8062 36.5925L50.3519 38.556H88.655C104.348 38.556 117.141 48.79 117.141 61.3445C117.141 73.899 104.348 84.0735 88.655 84.0735Z" fill="#145281"/>
</svg>
