<svg width="142" height="78" viewBox="0 0 142 78" fill="none" xmlns="http://www.w3.org/2000/svg">
<path opacity="0.4" d="M141.25 25.3955V59.2254C141.25 69.6102 128.114 77.9997 111.941 77.9997H29.3094C13.1362 77.9997 0 69.6102 0 59.2254V25.3955H141.25Z" fill="white"/>
<path d="M141.25 18.7742V25.3951H0V18.7742C0 8.38945 13.1362 0 29.3094 0H111.941C128.114 0 141.25 8.38945 141.25 18.7742Z" fill="white"/>
<path d="M42.375 62.8081H28.25C25.3544 62.8081 22.9531 61.2663 22.9531 59.407C22.9531 57.5477 25.3544 56.0059 28.25 56.0059H42.375C45.2706 56.0059 47.6719 57.5477 47.6719 59.407C47.6719 61.2663 45.2706 62.8081 42.375 62.8081Z" fill="white"/>
<path d="M88.2812 62.8081H60.0312C57.1356 62.8081 54.7344 61.2663 54.7344 59.407C54.7344 57.5477 57.1356 56.0059 60.0312 56.0059H88.2812C91.1769 56.0059 93.5781 57.5477 93.5781 59.407C93.5781 61.2663 91.1769 62.8081 88.2812 62.8081Z" fill="white"/>
</svg>
