<svg width="67" height="91" viewBox="0 0 67 91" fill="none" xmlns="http://www.w3.org/2000/svg">
<path d="M33.5 90.9073C32.5663 90.9073 31.6327 90.5633 30.8956 89.8262L1.06876 59.9992C-0.356254 58.5741 -0.356254 56.2155 1.06876 54.7905C2.49378 53.3655 4.85243 53.3655 6.27744 54.7905L33.5 82.0132L60.7227 54.7905C62.1477 53.3655 64.5064 53.3655 65.9314 54.7905C67.3564 56.2155 67.3564 58.5741 65.9314 59.9992L36.1043 89.8262C35.3672 90.5633 34.4336 90.9073 33.5 90.9073Z" fill="white"/>
<path d="M33.5048 90.0709C31.4902 90.0709 29.8194 88.4002 29.8194 86.3855V3.68539C29.8194 1.67071 31.4902 0 33.5048 0C35.5195 0 37.1902 1.67071 37.1902 3.68539V86.3855C37.1902 88.4002 35.5195 90.0709 33.5048 90.0709Z" fill="white"/>
</svg>
