<svg width="298" height="272" viewBox="0 0 298 272" fill="none" xmlns="http://www.w3.org/2000/svg">
<path opacity="0.4" d="M252.804 110.007V218.053C252.358 261.12 240.758 272 196.592 272H56.2121C11.3023 272 0 260.667 0 215.635V110.007C0 69.2067 9.36862 56.0599 44.6124 53.9443C48.1814 53.7932 52.0483 53.6421 56.2121 53.6421H196.592C241.502 53.6421 252.804 64.9756 252.804 110.007Z" fill="#0072B2"/>
<path d="M297.416 56.3651V161.993C297.416 202.793 288.048 215.94 252.804 218.056V110.01C252.804 64.9785 241.502 53.645 196.592 53.645H56.212C52.0482 53.645 48.1813 53.7962 44.6123 53.9473C45.0584 10.8801 56.6581 0 100.824 0H241.204C286.114 0 297.416 11.3335 297.416 56.3651Z" fill="#0072B2"/>
<path d="M73.7637 235.132H48.1853C42.0883 235.132 37.0322 229.994 37.0322 223.799C37.0322 217.603 42.0883 212.465 48.1853 212.465H73.7637C79.8608 212.465 84.9168 217.603 84.9168 223.799C84.9168 229.994 80.0095 235.132 73.7637 235.132Z" fill="#0072B2"/>
<path d="M156.878 235.132H105.722C99.6254 235.132 94.5693 229.994 94.5693 223.799C94.5693 217.603 99.6254 212.465 105.722 212.465H156.878C162.975 212.465 168.031 217.603 168.031 223.799C168.031 229.994 163.124 235.132 156.878 235.132Z" fill="#0072B2"/>
<path d="M252.804 133.884H0V156.551H252.804V133.884Z" fill="#0072B2"/>
</svg>
