<svg width="91" height="88" viewBox="0 0 91 88" fill="none" xmlns="http://www.w3.org/2000/svg">
<path d="M48.8877 61.6962H51.8437C54.7997 61.6962 57.2554 59.1442 57.2554 56.0642C57.2554 52.2362 55.8456 51.4882 53.5263 50.6962L48.9332 49.1562V61.6962H48.8877Z" fill="#145281"/>
<path d="M45.3408 7.3846e-05C20.2375 0.0880733 -0.0906494 19.8439 0.000304026 44.132C0.0912575 68.4198 20.5103 88.0877 45.6136 87.9997C70.7168 87.9117 91.0449 68.1558 90.9539 43.868C90.863 19.5799 70.4439 -0.0439259 45.3408 7.3846e-05ZM55.7549 44.44C59.3021 45.628 64.0772 48.18 64.0772 56.0559C64.0772 62.8319 58.5745 68.2878 51.8439 68.2878H48.8879V70.8398C48.8879 72.6438 47.3417 74.1398 45.4772 74.1398C43.6126 74.1398 42.0664 72.6438 42.0664 70.8398V68.2878H40.4293C32.9709 68.2878 26.9225 62.2159 26.9225 54.7359C26.9225 52.9319 28.4687 51.4359 30.3333 51.4359C32.1978 51.4359 33.744 52.9319 33.744 54.7359C33.744 58.5639 36.7456 61.6879 40.4293 61.6879H42.0664V46.816L35.1993 44.44C31.6521 43.252 26.8771 40.7 26.8771 32.8239C26.8771 26.0479 32.3797 20.5919 39.1104 20.5919H42.0664V18.04C42.0664 16.236 43.6126 14.74 45.4772 14.74C47.3417 14.74 48.8879 16.236 48.8879 18.04V20.5919H50.5251C57.9833 20.5919 64.0317 26.6639 64.0317 34.1438C64.0317 35.9481 62.4855 37.444 60.6209 37.444C58.7564 37.444 57.2102 35.9481 57.2102 34.1438C57.2102 30.3159 54.2087 27.1919 50.5251 27.1919H48.8879V42.064L55.7549 44.44Z" fill="#145281"/>
<path d="M33.7529 32.8674C33.7529 36.6953 35.1627 37.4433 37.4821 38.2352L42.0753 39.7752V27.1914H39.1193C36.1632 27.1914 33.7529 29.7434 33.7529 32.8674Z" fill="#145281"/>
</svg>
