<svg width="110" height="99" viewBox="0 0 110 99" fill="none" xmlns="http://www.w3.org/2000/svg">
<path d="M101.808 79.154V93.1965H8.19141V79.154C8.19141 76.5795 10.2978 74.4731 12.8723 74.4731H97.1276C99.702 74.4731 101.808 76.5795 101.808 79.154Z" fill="black" stroke="black" stroke-width="10.1684" stroke-miterlimit="10" stroke-linecap="round" stroke-linejoin="round"/>
<path d="M31.5961 41.7073H22.2344V74.4732H31.5961V41.7073Z" fill="black"/>
<path d="M50.3187 41.7073H40.957V74.4732H50.3187V41.7073Z" fill="black"/>
<path d="M69.0424 41.7073H59.6807V74.4732H69.0424V41.7073Z" fill="black"/>
<path d="M87.767 41.7073H78.4053V74.4732H87.767V41.7073Z" fill="black"/>
<path d="M106.489 96.7071H3.51064C1.59149 96.7071 0 95.1156 0 93.1964C0 91.2773 1.59149 89.6858 3.51064 89.6858H106.489C108.409 89.6858 110 91.2773 110 93.1964C110 95.1156 108.409 96.7071 106.489 96.7071Z" fill="black"/>
<path d="M98.8595 17.1319L56.7318 0.280851C55.7957 -0.093617 54.2042 -0.093617 53.268 0.280851L11.1403 17.1319C9.50205 17.7872 8.19141 19.7064 8.19141 21.4851V37.0255C8.19141 39.5998 10.2978 41.7062 12.8723 41.7062H97.1276C99.702 41.7062 101.808 39.5998 101.808 37.0255V21.4851C101.808 19.7064 100.498 17.7872 98.8595 17.1319ZM54.9999 30.0042C51.1148 30.0042 47.9786 26.8681 47.9786 22.983C47.9786 19.0979 51.1148 15.9617 54.9999 15.9617C58.885 15.9617 62.0212 19.0979 62.0212 22.983C62.0212 26.8681 58.885 30.0042 54.9999 30.0042Z" fill="black"/>
</svg>
