<svg width="134" height="126" viewBox="0 0 134 126" fill="none" xmlns="http://www.w3.org/2000/svg">
<path d="M124.812 71.9462V71.8794C118.933 65.6656 110.714 61.8572 101.561 61.8572C83.8549 61.8572 69.4897 76.2223 69.4897 93.9283C69.4897 102.146 72.63 109.63 77.7079 115.309C83.5876 121.857 92.0731 125.999 101.561 125.999C119.267 125.999 133.632 111.634 133.632 93.9283C133.632 85.4428 130.291 77.6923 124.812 71.9462ZM113.521 99.3402H106.572V106.623C106.572 109.362 104.3 111.634 101.561 111.634C98.8214 111.634 96.5497 109.362 96.5497 106.623V99.3402H89.6009C86.7947 99.3402 84.5898 97.1354 84.5898 94.3291C84.5898 91.5897 86.7279 89.3848 89.5341 89.318H96.5497V82.6366C96.5497 82.5029 96.5497 82.3693 96.6165 82.2357C96.7501 79.6967 98.955 77.6255 101.561 77.6255C104.233 77.6255 106.438 79.7635 106.572 82.4361V89.318H113.521C116.327 89.318 118.532 91.5897 118.532 94.3291C118.532 97.1354 116.327 99.3402 113.521 99.3402Z" fill="#0072B2"/>
<path d="M133.629 37.3494C133.629 45.3003 132.36 52.6498 130.155 59.4649C129.754 60.868 128.084 61.2689 126.881 60.4003C119.598 54.9883 110.712 52.1153 101.558 52.1153C78.3737 52.1153 59.4651 71.0239 59.4651 94.2086C59.4651 101.425 61.3359 108.507 64.8771 114.788C65.9461 116.658 64.6767 119.064 62.6722 118.329C46.5699 112.85 14.0311 92.8723 3.47437 59.4649C1.26948 52.6498 0 45.3003 0 37.3494C0 16.7036 16.6369 2.00444e-10 37.149 2.00444e-10C49.2425 2.00444e-10 60.0664 5.87963 66.8147 14.8996C73.563 5.87963 84.387 2.00444e-10 96.4805 2.00444e-10C116.993 -6.68145e-05 133.629 16.7036 133.629 37.3494Z" fill="#0072B2"/>
</svg>
