<svg width="251" height="265" viewBox="0 0 251 265" fill="none" xmlns="http://www.w3.org/2000/svg">
<path d="M242.003 264.999H8.74709C3.96535 264.999 0 260.494 0 255.062C0 249.63 3.96535 245.125 8.74709 245.125H242.003C246.785 245.125 250.75 249.63 250.75 255.062C250.75 260.494 246.785 264.999 242.003 264.999Z" fill="#0072B2"/>
<path d="M99.1338 26.5V265H151.616V26.5C151.616 11.925 146.368 0 130.623 0H120.127C104.382 0 99.1338 11.925 99.1338 26.5Z" fill="#0072B2"/>
<path d="M20.4102 105.999V264.999H67.0613V105.999C67.0613 91.4245 62.3962 79.4995 48.4009 79.4995H39.0706C25.0753 79.4995 20.4102 91.4245 20.4102 105.999Z" fill="#0072B2"/>
<path d="M183.688 172.25V265H230.34V172.25C230.34 157.675 225.675 145.75 211.679 145.75H202.349C188.354 145.75 183.688 157.675 183.688 172.25Z" fill="#0072B2"/>
</svg>
