<svg width="107" height="76" viewBox="0 0 107 76" fill="none" xmlns="http://www.w3.org/2000/svg">
<path d="M102.926 75.9998C101.966 75.9998 101.007 75.7338 100.313 75.2398L90.3943 68.1713C88.9544 67.1453 88.9544 65.4732 90.3943 64.4091C91.8342 63.383 94.1806 63.383 95.6738 64.4091L105.593 71.4775C107.033 72.5036 107.033 74.1757 105.593 75.2398C104.846 75.7338 103.886 75.9998 102.926 75.9998Z" fill="white"/>
<path d="M50.6616 0C22.7177 0 0 16.189 0 36.1022C0 56.0154 22.7177 72.2044 50.6616 72.2044C78.6054 72.2044 101.323 56.0154 101.323 36.1022C101.323 16.189 78.6054 0 50.6616 0ZM65.0601 39.7124H55.7277V46.3628C55.7277 47.9209 53.9146 49.213 51.7281 49.213C49.5417 49.213 47.7285 47.9209 47.7285 46.3628V39.7124H38.3961C36.2097 39.7124 34.3965 38.4203 34.3965 36.8622C34.3965 35.3042 36.2097 34.0121 38.3961 34.0121H47.7285V27.3617C47.7285 25.8036 49.5417 24.5115 51.7281 24.5115C53.9146 24.5115 55.7277 25.8036 55.7277 27.3617V34.0121H65.0601C67.2466 34.0121 69.0597 35.3042 69.0597 36.8622C69.0597 38.4203 67.2466 39.7124 65.0601 39.7124Z" fill="white"/>
</svg>
