<svg width="126" height="118" viewBox="0 0 126 118" fill="none" xmlns="http://www.w3.org/2000/svg">
<path d="M116.888 67.3782V67.3156C111.382 61.4963 103.686 57.9297 95.1131 57.9297C78.5313 57.9297 65.0781 71.3829 65.0781 87.9647C65.0781 95.6611 68.019 102.669 72.7746 107.988C78.281 114.12 86.2278 118 95.1131 118C111.695 118 125.148 104.546 125.148 87.9647C125.148 80.0179 122.019 72.7595 116.888 67.3782ZM106.314 93.0331H99.8061V99.8535C99.8061 102.419 97.6786 104.546 95.1131 104.546C92.5476 104.546 90.4201 102.419 90.4201 99.8535V93.0331H83.9126C81.2845 93.0331 79.2196 90.9682 79.2196 88.3401C79.2196 85.7746 81.2219 83.7097 83.85 83.6471H90.4201V77.3898C90.4201 77.2647 90.4201 77.1396 90.4827 77.0144C90.6079 74.6366 92.6728 72.6969 95.1131 72.6969C97.616 72.6969 99.6809 74.6992 99.8061 77.2021V83.6471H106.314C108.942 83.6471 111.007 85.7746 111.007 88.3401C111.007 90.9682 108.942 93.0331 106.314 93.0331Z" fill="white"/>
<path d="M125.146 34.9782C125.146 42.4244 123.957 49.3072 121.892 55.6897C121.517 57.0037 119.952 57.3791 118.826 56.5657C112.005 51.4973 103.683 48.8067 95.1108 48.8067C73.398 48.8067 55.6898 66.5148 55.6898 88.2276C55.6898 94.9854 57.4419 101.618 60.7583 107.5C61.7594 109.252 60.5705 111.505 58.6933 110.816C43.6133 105.685 13.1403 86.9761 3.25379 55.6897C1.18888 49.3072 0 42.4244 0 34.9782C0 15.6432 15.5806 1.87719e-10 34.7905 1.87719e-10C46.1162 1.87719e-10 56.253 5.50635 62.5729 13.9537C68.8927 5.50635 79.0295 1.87719e-10 90.3552 1.87719e-10C109.565 -6.25727e-05 125.146 15.6432 125.146 34.9782Z" fill="white"/>
</svg>
