<svg width="323" height="298" viewBox="0 0 323 298" fill="none" xmlns="http://www.w3.org/2000/svg">
<path d="M160.523 3.03544L120.644 86.5216H80.7659C74.147 86.5216 67.6937 86.968 61.4058 88.1585L77.9529 52.4426L78.6148 51.1032L79.6076 48.7221C80.104 47.6804 80.435 46.7875 80.9314 46.0434C100.126 6.01177 121.637 -6.48883 160.523 3.03544Z" fill="#0072B2"/>
<path d="M272.909 90.5064L272.578 90.3576C262.649 87.8277 252.556 86.4884 242.296 86.4884H138.711L175.942 8.65732L176.439 7.6156C178.755 8.35968 181.237 9.4014 183.72 10.1455L220.289 23.9854C240.642 31.5751 254.872 39.4624 263.642 48.9866C265.131 50.7724 266.455 52.4094 267.779 54.344C269.268 56.4274 270.426 58.5109 271.088 60.7431C271.75 62.0825 272.247 63.273 272.578 64.6124C275.06 72.202 275.225 80.8334 272.909 90.5064Z" fill="#0072B2"/>
<path d="M170.125 232.902H174.262C179.226 232.902 183.363 228.884 183.363 223.973C183.363 217.723 181.377 216.83 177.075 215.342L170.125 213.11V232.902Z" fill="#0072B2"/>
<path d="M265.582 111.799C258.135 109.864 250.358 108.822 242.25 108.822H80.75C69.4979 108.822 58.9078 110.757 48.9795 114.626C20.1875 125.787 0 151.533 0 181.445V210.464C0 214.035 0.330942 217.458 0.827356 221.03C4.46772 268.354 32.5978 293.652 85.2177 296.778C89.0235 297.224 92.8294 297.522 96.9662 297.522H226.034C287.258 297.522 319.525 271.33 322.669 219.244C322.835 216.417 323 213.44 323 210.464V181.445C323 148.556 298.676 120.876 265.582 111.799ZM182.681 200.791C190.292 203.172 200.552 208.232 200.552 224.006C200.552 237.549 188.803 248.412 174.242 248.412H170.105V251.686C170.105 256.002 166.299 259.425 161.5 259.425C156.702 259.425 152.896 256.002 152.896 251.686V248.412H151.407C135.521 248.412 122.449 236.358 122.449 221.476C122.449 217.161 126.255 213.738 131.054 213.738C135.852 213.738 139.658 217.161 139.658 221.476C139.658 227.727 144.953 232.935 151.407 232.935H152.896V207.785L140.32 203.767C132.708 201.386 122.449 196.326 122.449 180.552C122.449 167.009 134.198 156.146 148.759 156.146H152.896V152.872C152.896 148.556 156.702 145.133 161.5 145.133C166.299 145.133 170.105 148.556 170.105 152.872V156.146H171.594C187.479 156.146 200.552 168.2 200.552 183.082C200.552 187.397 196.746 190.82 191.947 190.82C187.148 190.82 183.342 187.397 183.342 183.082C183.342 176.831 178.047 171.623 171.594 171.623H170.105V196.773L182.681 200.791Z" fill="#0072B2"/>
<path d="M139.681 180.533C139.681 186.783 141.667 187.676 145.969 189.164L152.919 191.397V171.604H148.782C143.652 171.604 139.681 175.622 139.681 180.533Z" fill="#0072B2"/>
</svg>
