<svg width="121" height="122" viewBox="0 0 121 122" fill="none" xmlns="http://www.w3.org/2000/svg">
<path d="M111.945 99.2702V116.882H9.00673V99.2702C9.00673 96.0414 11.3228 93.3997 14.1536 93.3997H106.798C109.629 93.3997 111.945 96.0414 111.945 99.2702Z" fill="black" stroke="black" stroke-width="10.1684" stroke-miterlimit="10" stroke-linecap="round" stroke-linejoin="round"/>
<path d="M34.7421 52.3068H24.4482V93.3999H34.7421V52.3068Z" fill="black"/>
<path d="M55.3294 52.3068H45.0356V93.3999H55.3294V52.3068Z" fill="black"/>
<path d="M75.9168 52.3068H65.623V93.3999H75.9168V52.3068Z" fill="black"/>
<path d="M96.5052 52.3068H86.2114V93.3999H96.5052V52.3068Z" fill="black"/>
<path d="M117.092 121.284H3.86018C1.74995 121.284 0 119.288 0 116.882C0 114.475 1.74995 112.479 3.86018 112.479H117.092C119.202 112.479 120.952 114.475 120.952 116.882C120.952 119.288 119.202 121.284 117.092 121.284Z" fill="black"/>
<path d="M108.702 21.4858L62.3802 0.352227C61.3508 -0.117409 59.6008 -0.117409 58.5714 0.352227L12.2493 21.4858C10.4479 22.3077 9.00673 24.7146 9.00673 26.9453V46.4352C9.00673 49.6637 11.3228 52.3054 14.1536 52.3054H106.798C109.629 52.3054 111.945 49.6637 111.945 46.4352V26.9453C111.945 24.7146 110.504 22.3077 108.702 21.4858ZM60.4758 37.6295C56.2039 37.6295 52.7554 33.6963 52.7554 28.8239C52.7554 23.9514 56.2039 20.0182 60.4758 20.0182C64.7477 20.0182 68.1962 23.9514 68.1962 28.8239C68.1962 33.6963 64.7477 37.6295 60.4758 37.6295Z" fill="black"/>
</svg>
