<svg width="311" height="295" viewBox="0 0 311 295" fill="none" xmlns="http://www.w3.org/2000/svg">
<path d="M251.962 70.8169H272.349C269.5 66.9902 266.502 63.4469 263.355 59.9036L251.962 70.8169Z" fill="#0072B2"/>
<path d="M247.636 44.8778C243.889 41.9014 240.141 39.0668 236.094 36.3739V55.6494L247.636 44.8778Z" fill="#0072B2"/>
<path d="M263.519 59.917L307.739 18.1062C312.086 13.996 312.086 7.19287 307.739 3.08266C303.392 -1.02755 296.197 -1.02755 291.85 3.08266L247.629 44.8934C253.325 49.5706 258.572 54.6729 263.519 59.917Z" fill="#0072B2"/>
<path d="M236.119 24.748C236.119 18.937 231.022 14.1181 224.876 14.1181C218.88 14.1181 214.083 18.6535 213.784 24.1811C221.578 27.7243 229.073 31.6928 236.119 36.37V24.748Z" fill="#0072B2"/>
<path d="M296.082 81.4402C296.082 75.6292 290.985 70.8103 284.839 70.8103H272.398C277.344 77.4717 281.691 84.5583 285.289 91.9283C291.285 91.6448 296.082 87.1094 296.082 81.4402Z" fill="#0072B2"/>
<path d="M161.143 191.293H165.64C171.486 191.293 176.133 186.332 176.133 180.238C176.133 172.584 173.885 171.451 168.788 169.75L161.143 167.199V191.293Z" fill="#0072B2"/>
<path d="M285.411 91.9281C285.261 91.9281 285.111 92.0698 284.811 92.0698H224.851C223.352 92.0698 222.003 91.7863 220.504 91.2194C217.805 90.0855 215.557 88.1013 214.358 85.4084C213.908 84.1328 213.608 82.8572 213.608 81.4399V24.7473C213.608 24.6056 213.758 24.4639 213.758 24.1804C194.271 15.5348 172.685 10.5742 149.9 10.5742C67.1554 10.5742 0 74.0699 0 152.306C0 230.541 67.1554 294.037 149.9 294.037C232.646 294.037 299.801 230.541 299.801 152.306C299.801 130.762 294.554 110.353 285.411 91.9281ZM176.133 149.755C185.727 152.873 198.618 159.534 198.618 180.368C198.618 198.085 183.778 212.683 165.64 212.683H161.143V216.227C161.143 222.038 156.046 226.856 149.9 226.856C143.755 226.856 138.658 222.038 138.658 216.227V212.683H137.459C117.522 212.683 101.183 196.809 101.183 177.25C101.183 171.298 106.279 166.479 112.425 166.479C118.571 166.479 123.668 171.298 123.668 177.109C123.668 184.904 129.814 191.282 137.459 191.282H138.658V159.817L123.668 154.857C114.074 151.739 101.183 145.077 101.183 124.243C101.183 106.526 116.023 91.9281 134.161 91.9281H138.658V88.5265C138.658 82.7155 143.755 77.8966 149.9 77.8966C156.046 77.8966 161.143 82.7155 161.143 88.5265V92.0698H162.342C182.279 92.0698 198.618 107.944 198.618 127.503C198.618 133.314 193.522 138.133 187.376 138.133C181.23 138.133 176.133 133.314 176.133 127.503C176.133 119.707 169.987 113.33 162.342 113.33H161.143V144.794L176.133 149.755Z" fill="#0072B2"/>
<path d="M123.669 124.384C123.669 132.038 125.917 133.172 131.014 134.872L138.659 137.424V113.329H134.162C128.465 113.329 123.669 118.29 123.669 124.384Z" fill="#0072B2"/>
</svg>
