<svg width="254" height="254" viewBox="0 0 254 254" fill="none" xmlns="http://www.w3.org/2000/svg">
<g filter="url(#filter0_d_43_144)">
<path d="M127 0C57.023 0 0 57.023 0 127C0 196.977 57.023 254 127 254C196.977 254 254 196.977 254 127C254 57.023 196.977 0 127 0ZM187.706 97.79L115.697 169.799C113.919 171.577 111.506 172.593 108.966 172.593C106.426 172.593 104.013 171.577 102.235 169.799L66.294 133.858C62.611 130.175 62.611 124.079 66.294 120.396C69.977 116.713 76.073 116.713 79.756 120.396L108.966 149.606L174.244 84.328C177.927 80.645 184.023 80.645 187.706 84.328C191.389 88.011 191.389 93.98 187.706 97.79Z" fill="#0072B2"/>
</g>
<defs>
<filter id="filter0_d_43_144" x="-90" y="-90" width="454" height="454" filterUnits="userSpaceOnUse" color-interpolation-filters="sRGB">
<feFlood flood-opacity="0" result="BackgroundImageFix"/>
<feColorMatrix in="SourceAlpha" type="matrix" values="0 0 0 0 0 0 0 0 0 0 0 0 0 0 0 0 0 0 127 0" result="hardAlpha"/>
<feOffset dx="10" dy="10"/>
<feGaussianBlur stdDeviation="50"/>
<feComposite in2="hardAlpha" operator="out"/>
<feColorMatrix type="matrix" values="0 0 0 0 0.533333 0 0 0 0 0.8 0 0 0 0 0.933333 0 0 0 0.5 0"/>
<feBlend mode="darken" in2="BackgroundImageFix" result="effect1_dropShadow_43_144"/>
<feBlend mode="normal" in="SourceGraphic" in2="effect1_dropShadow_43_144" result="shape"/>
</filter>
</defs>
</svg>
