<svg width="106" height="129" viewBox="0 0 106 129" fill="none" xmlns="http://www.w3.org/2000/svg">
<path d="M52.9931 -0.000289073C54.4699 -0.000288884 55.9468 0.487806 57.1128 1.53373L104.295 43.8588C106.549 45.8809 106.549 49.2279 104.295 51.25C102.041 53.2721 98.3095 53.2721 96.0553 51.25L52.9931 12.6205L9.93049 51.25C7.67632 53.2721 3.94527 53.2721 1.69109 51.25C-0.563087 49.2279 -0.563087 45.8809 1.69109 43.8588L48.8734 1.53373C50.0393 0.487805 51.5162 -0.000289263 52.9931 -0.000289073Z" fill="#145281"/>
<path d="M52.9867 1.18804C56.1736 1.18804 58.8164 3.5588 58.8164 6.41766L58.8164 123.77C58.8164 126.629 56.1736 129 52.9866 129C49.7997 129 47.1569 126.629 47.1569 123.77L47.1569 6.41766C47.1569 3.5588 49.7997 1.18804 52.9867 1.18804Z" fill="#145281"/>
</svg>
