<svg width="121" height="137" viewBox="0 0 121 137" fill="none" xmlns="http://www.w3.org/2000/svg">
<path d="M111.484 112.028V131.903H8.96966V112.028C8.96966 108.384 11.2762 105.403 14.0954 105.403H106.358C109.178 105.403 111.484 108.384 111.484 112.028Z" fill="black" stroke="black" stroke-width="10.1684" stroke-miterlimit="10" stroke-linecap="round" stroke-linejoin="round"/>
<path d="M34.5991 59.0292H24.3476V105.403H34.5991V59.0292Z" fill="black"/>
<path d="M55.1017 59.0292H44.8502V105.403H55.1017V59.0292Z" fill="black"/>
<path d="M75.6043 59.0292H65.3529V105.403H75.6043V59.0292Z" fill="black"/>
<path d="M96.1079 59.0292H85.8565V105.403H96.1079V59.0292Z" fill="black"/>
<path d="M116.61 136.871H3.84429C1.74275 136.871 0 134.619 0 131.903C0 129.186 1.74275 126.934 3.84429 126.934H116.61C118.712 126.934 120.454 129.186 120.454 131.903C120.454 134.619 118.712 136.871 116.61 136.871Z" fill="black"/>
<path d="M108.255 24.2471L62.1234 0.397493C61.0982 -0.132498 59.3555 -0.132498 58.3304 0.397493L12.1989 24.2471C10.4049 25.1746 8.96966 27.8908 8.96966 30.4082V52.4029C8.96966 56.0463 11.2762 59.0275 14.0954 59.0275H106.358C109.178 59.0275 111.484 56.0463 111.484 52.4029V30.4082C111.484 27.8908 110.049 25.1746 108.255 24.2471ZM60.2269 42.4655C55.9725 42.4655 52.5383 38.0269 52.5383 32.5282C52.5383 27.0296 55.9725 22.5909 60.2269 22.5909C64.4812 22.5909 67.9155 27.0296 67.9155 32.5282C67.9155 38.0269 64.4812 42.4655 60.2269 42.4655Z" fill="black"/>
</svg>
