<svg width="84" height="88" viewBox="0 0 84 88" fill="none" xmlns="http://www.w3.org/2000/svg">
<path d="M79.2 36.036H66.484C56.056 36.036 47.564 27.544 47.564 17.116V4.4C47.564 1.98 45.584 0 43.164 0H24.508C10.956 0 0 8.8 0 24.508V63.492C0 79.2 10.956 88 24.508 88H59.092C72.644 88 83.6 79.2 83.6 63.492V40.436C83.6 38.016 81.62 36.036 79.2 36.036ZM39.732 50.732C39.072 51.392 38.236 51.7 37.4 51.7C36.564 51.7 35.728 51.392 35.068 50.732L31.9 47.564V66C31.9 67.804 30.404 69.3 28.6 69.3C26.796 69.3 25.3 67.804 25.3 66V47.564L22.132 50.732C20.856 52.008 18.744 52.008 17.468 50.732C16.192 49.456 16.192 47.344 17.468 46.068L26.268 37.268C26.576 37.004 26.884 36.784 27.236 36.608C27.324 36.564 27.456 36.52 27.544 36.476C27.808 36.388 28.072 36.344 28.38 36.3H28.732C29.084 36.3 29.436 36.388 29.788 36.52H29.876C30.228 36.652 30.58 36.916 30.844 37.18C30.888 37.224 30.932 37.224 30.932 37.268L39.732 46.068C41.008 47.344 41.008 49.456 39.732 50.732Z" fill="#292D32"/>
<path d="M65.6905 29.9661C69.8705 30.0101 75.6785 30.0101 80.6505 30.0101C83.1585 30.0101 84.4785 27.0621 82.7185 25.3021C76.3825 18.9221 65.0305 7.43812 58.5185 0.926115C56.7145 -0.877886 53.5905 0.354115 53.5905 2.86212V18.2181C53.5905 24.6421 59.0465 29.9661 65.6905 29.9661Z" fill="#292D32"/>
</svg>
