<svg width="76" height="81" viewBox="0 0 76 81" fill="none" xmlns="http://www.w3.org/2000/svg">
<path d="M72.6571 81C71.9795 81 71.3019 80.7165 70.8125 80.1899L63.8105 72.6564C62.7941 71.5629 62.7941 69.7807 63.8105 68.6467C64.8269 67.5531 66.4833 67.5531 67.5374 68.6467L74.5394 76.1802C75.5558 77.2737 75.5558 79.0558 74.5394 80.1899C74.0124 80.7165 73.3348 81 72.6571 81Z" fill="white"/>
<path d="M35.7631 0C16.0369 0 0 17.2541 0 38.4775C0 59.7009 16.0369 76.9551 35.7631 76.9551C55.4893 76.9551 71.5263 59.7009 71.5263 38.4775C71.5263 17.2541 55.4893 0 35.7631 0ZM45.9274 42.3253H39.3394V49.4133C39.3394 51.0739 38.0595 52.451 36.516 52.451C34.9726 52.451 33.6926 51.0739 33.6926 49.4133V42.3253H27.1047C25.5612 42.3253 24.2813 40.9482 24.2813 39.2876C24.2813 37.627 25.5612 36.2499 27.1047 36.2499H33.6926V29.1619C33.6926 27.5013 34.9726 26.1242 36.516 26.1242C38.0595 26.1242 39.3394 27.5013 39.3394 29.1619V36.2499H45.9274C47.4708 36.2499 48.7508 37.627 48.7508 39.2876C48.7508 40.9482 47.4708 42.3253 45.9274 42.3253Z" fill="white"/>
</svg>
