<svg width="122" height="148" viewBox="0 0 122 148" fill="none" xmlns="http://www.w3.org/2000/svg">
<path d="M60.7983 148C59.1038 148 57.4094 147.44 56.0717 146.24L1.93967 97.6804C-0.646556 95.3604 -0.646556 91.5204 1.93967 89.2004C4.5259 86.8804 8.80655 86.8804 11.3928 89.2004L60.7983 133.52L110.204 89.2004C112.79 86.8804 117.071 86.8804 119.657 89.2004C122.243 91.5204 122.243 95.3604 119.657 97.6804L65.5248 146.24C64.1871 147.44 62.4927 148 60.7983 148Z" fill="#145281"/>
<path d="M60.8051 146.639C57.1487 146.639 54.1166 143.919 54.1166 140.639V5.99996C54.1166 2.71998 57.1487 0 60.8051 0C64.4615 0 67.4936 2.71998 67.4936 5.99996V140.639C67.4936 143.919 64.4615 146.639 60.8051 146.639Z" fill="#145281"/>
</svg>
