<svg width="92" height="88" viewBox="0 0 92 88" fill="none" xmlns="http://www.w3.org/2000/svg">
<path d="M65.3065 0H26.7393C9.98698 0 0 9.548 0 25.564V62.392C0 78.452 9.98698 88 26.7393 88H65.2605C82.0129 88 91.9998 78.452 91.9998 62.436V25.564C92.0459 9.548 82.0589 0 65.3065 0ZM46.0229 72.952C31.4337 72.952 19.5597 61.6 19.5597 47.652C19.5597 33.968 30.9734 22.836 45.1485 22.352L43.4456 20.46C42.203 19.096 42.3411 16.984 43.7678 15.796C45.1945 14.608 47.4036 14.74 48.6462 16.104L56.286 24.464C56.3781 24.552 56.4241 24.64 56.5162 24.728C56.7003 24.992 56.8843 25.3 56.9764 25.608C57.0224 25.784 57.0684 25.96 57.1145 26.136C57.2065 26.532 57.1605 26.972 57.0684 27.368C56.9764 27.72 56.8383 28.072 56.6542 28.424C56.6082 28.512 56.5162 28.6 56.4701 28.688C56.2861 28.952 56.0099 29.172 55.7338 29.348C55.7338 29.348 55.6878 29.348 55.6878 29.392L46.7593 35.64C45.1945 36.696 43.0775 36.388 41.9269 34.936C40.8223 33.484 41.1445 31.416 42.6633 30.316L44.5502 28.996C34.4252 29.7 26.4172 37.796 26.4172 47.652C26.4172 57.948 35.2075 66.352 45.9769 66.352C56.7463 66.352 65.5367 57.948 65.5367 47.652C65.5367 43.956 64.3861 40.348 62.269 37.268C61.2105 35.772 61.6247 33.704 63.2355 32.692C64.8463 31.68 66.9634 32.076 68.0219 33.616C70.9213 37.796 72.4861 42.636 72.4861 47.652C72.4861 61.6 60.6122 72.952 46.0229 72.952Z" fill="#145281"/>
</svg>
