<svg width="105" height="84" viewBox="0 0 105 84" fill="none" xmlns="http://www.w3.org/2000/svg">
<path d="M81.8759 65.2074C81.0938 65.2074 80.3606 64.963 79.6763 64.4742C78.0632 63.2522 77.7211 60.9548 78.9431 59.3418C86.6173 49.1257 86.6173 34.8526 78.9431 24.6364C77.7211 23.0233 78.0632 20.7259 79.6763 19.5039C81.2894 18.2819 83.5867 18.624 84.8088 20.2371C94.3894 33.044 94.3894 50.9343 84.8088 63.741C84.0755 64.7186 83.0002 65.2074 81.8759 65.2074Z" fill="#145281"/>
<path d="M90.812 77.4276C90.0299 77.4276 89.2967 77.1832 88.6123 76.6944C86.9993 75.4724 86.6571 73.175 87.8791 71.5619C100.93 54.1604 100.93 29.8177 87.8791 12.4162C86.6571 10.8032 86.9993 8.50576 88.6123 7.28375C90.2254 6.06173 92.5228 6.40389 93.7448 8.01696C108.751 28.0091 108.751 55.969 93.7448 75.9612C93.0605 76.9388 91.9362 77.4276 90.812 77.4276Z" fill="#145281"/>
<path d="M62.4206 1.81602C56.9459 -1.21458 49.956 -0.432493 42.8194 4.01564L28.5463 12.9608C27.5687 13.5474 26.4444 13.8895 25.3202 13.8895H20.7743H18.3302C6.50112 13.8895 0 20.3907 0 32.2199V51.7721C0 63.6012 6.50112 70.1024 18.3302 70.1024H20.7743H25.3202C26.4444 70.1024 27.5687 70.4445 28.5463 71.0311L42.8194 79.9762C47.1209 82.6647 51.3247 83.9845 55.2351 83.9845C57.7769 83.9845 60.2209 83.3979 62.4206 82.1759C67.8463 79.1453 70.8769 72.8397 70.8769 64.4322V19.5597C70.8769 11.1522 67.8463 4.84662 62.4206 1.81602Z" fill="#145281"/>
</svg>
