<svg width="101" height="107" viewBox="0 0 101 107" fill="none" xmlns="http://www.w3.org/2000/svg">
<path d="M70.0603 0H30.0258C10.0086 0 0 10.7 0 32.1V101.65C0 104.592 2.25194 107 5.0043 107H70.0603C90.0775 107 100.086 96.3 100.086 74.9V32.1C100.086 10.7 90.0775 0 70.0603 0ZM45.5892 78.431C44.3381 79.7685 42.0362 80.999 40.3347 81.2665L29.9257 82.818C29.5254 82.8715 29.1251 82.925 28.7748 82.925C27.0232 82.925 25.4219 82.283 24.2709 81.0525C22.8697 79.5545 22.2692 77.361 22.6195 75.007L24.0707 63.879C24.3209 62.06 25.4719 59.5455 26.723 58.2615L45.5892 38.092C45.8895 39.055 46.2898 40.018 46.7402 41.088C47.1906 42.051 47.641 43.014 48.1414 43.9235C48.5418 44.6725 48.9921 45.4215 49.3925 45.9565C49.8929 46.759 50.3934 47.4545 50.7437 47.829C50.9438 48.15 51.144 48.364 51.194 48.471C52.295 49.8085 53.446 51.0925 54.5469 52.0555C54.8472 52.3765 55.0474 52.537 55.0974 52.5905C55.748 53.1255 56.3485 53.714 56.949 54.0885C57.5995 54.6235 58.3002 55.105 59.0008 55.533C59.8515 56.068 60.7523 56.603 61.7031 57.0845C62.6539 57.566 63.5547 57.9405 64.4554 58.2615L45.5892 78.431ZM72.8126 49.3805L68.9093 53.5535C68.6591 53.821 68.3088 53.9815 67.9585 53.9815C67.8584 53.9815 67.6582 53.9815 67.5581 53.928C58.9507 51.3065 52.0948 43.977 49.6427 34.775C49.4926 34.2935 49.6427 33.7585 49.993 33.384L53.9464 29.1575C60.402 22.256 66.5072 22.4165 72.8126 29.1575C76.0154 32.5815 77.6168 35.8985 77.5667 39.3225C77.5667 42.693 76.0154 45.9565 72.8126 49.3805Z" fill="#145281"/>
</svg>
