<svg width="71" height="97" viewBox="0 0 71 97" fill="none" xmlns="http://www.w3.org/2000/svg">
<path d="M35.5002 0.000673168C36.4896 0.000673254 37.4789 0.365172 38.26 1.14625L69.8674 32.7539C71.3775 34.264 71.3775 36.7634 69.8674 38.2735C68.3574 39.7836 65.8579 39.7836 64.3478 38.2735L35.5002 9.42568L6.65236 38.2735C5.14228 39.7836 2.64283 39.7836 1.13274 38.2735C-0.377336 36.7634 -0.377336 34.264 1.13274 32.7539L32.7404 1.14625C33.5215 0.365172 34.5108 0.000673081 35.5002 0.000673168Z" fill="white"/>
<path d="M35.4958 0.886243C37.6308 0.886244 39.4012 2.65668 39.4012 4.79163L39.4012 92.4286C39.4012 94.5636 37.6307 96.334 35.4958 96.334C33.3609 96.334 31.5904 94.5636 31.5904 92.4286L31.5904 4.79163C31.5904 2.65668 33.3609 0.886243 35.4958 0.886243Z" fill="white"/>
</svg>
