<svg width="112" height="92" viewBox="0 0 112 92" fill="none" xmlns="http://www.w3.org/2000/svg">
<path opacity="0.4" d="M46.2091 92H83.6782C99.0673 92 111.557 79.5103 111.557 64.1212L111.557 27.8788C111.557 12.4897 99.0673 0 83.6782 0L46.2091 0C38.3473 0 30.8758 3.2897 25.5788 9.14424L5.89636 30.7782C-1.96545 39.4206 -1.96545 52.5794 5.89636 61.2218L25.5788 82.8558C30.8758 88.7103 38.3473 92 46.2091 92Z" fill="#145281"/>
<path d="M70.2419 46L81.0589 35.183C82.6758 33.5659 82.6758 30.8895 81.0589 29.2725C79.4419 27.6556 76.7655 27.6556 75.1486 29.2725L64.3316 40.0897L53.5146 29.2725C51.8977 27.6556 49.2213 27.6556 47.6043 29.2725C45.9874 30.8895 45.9874 33.5659 47.6043 35.183L58.4213 46L47.6043 56.8169C45.9874 58.4339 45.9874 61.1103 47.6043 62.7273C48.4407 63.5636 49.5001 63.9539 50.5595 63.9539C51.6189 63.9539 52.6783 63.5636 53.5146 62.7273L64.3316 51.9103L75.1486 62.7273C75.9849 63.5636 77.0443 63.9539 78.1037 63.9539C79.1631 63.9539 80.2225 63.5636 81.0589 62.7273C82.6758 61.1103 82.6758 58.4339 81.0589 56.8169L70.2419 46Z" fill="#145281"/>
</svg>
