<svg width="85" height="79" viewBox="0 0 85 79" fill="none" xmlns="http://www.w3.org/2000/svg">
<path d="M42.1917 0.805993L31.71 22.9739H21.2282C19.4885 22.9739 17.7923 23.0924 16.1396 23.4086L20.4889 13.925L20.6628 13.5693L20.9238 12.9371C21.0543 12.6605 21.1413 12.4234 21.2717 12.2258C26.3169 1.59629 31.971 -1.72297 42.1917 0.805993Z" fill="#0072B2"/>
<path d="M71.7326 24.0307L71.6456 23.9912C69.036 23.3195 66.3829 22.9638 63.6864 22.9638H36.4598L46.2457 2.2975L46.3762 2.02089C46.9851 2.21847 47.6375 2.49507 48.2899 2.69265L57.9018 6.36754C63.2514 8.38281 66.9918 10.4771 69.297 13.0061C69.6884 13.4802 70.0363 13.9149 70.3843 14.4286C70.7757 14.9818 71.0802 15.535 71.2541 16.1277C71.4281 16.4834 71.5586 16.7995 71.6456 17.1551C72.298 19.1704 72.3415 21.4623 71.7326 24.0307Z" fill="#0072B2"/>
<path d="M44.7147 61.8445H45.8021C47.1068 61.8445 48.1942 60.7775 48.1942 59.4736C48.1942 57.8139 47.6723 57.5768 46.5414 57.1817L44.7147 56.589V61.8445Z" fill="#0072B2"/>
<path d="M69.8062 29.6855C67.849 29.1718 65.8049 28.8952 63.6737 28.8952H21.2245C18.267 28.8952 15.4835 29.4089 12.8739 30.4363C5.30613 33.3999 0 40.236 0 48.1785V55.8839C0 56.8323 0.0869856 57.7411 0.217464 58.6895C1.17431 71.2553 8.5681 77.9728 22.3988 78.8026C23.3992 78.9212 24.3995 79.0002 25.4868 79.0002H59.4114C75.5038 79.0002 83.9849 72.0456 84.8113 58.2153C84.8548 57.4645 84.8983 56.6742 84.8983 55.8839V48.1785C84.8983 39.4457 78.5048 32.0959 69.8062 29.6855ZM48.0163 53.3155C50.0169 53.9477 52.7135 55.2912 52.7135 59.4798C52.7135 63.0757 49.6255 65.9603 45.7981 65.9603H44.7108V66.8296C44.7108 67.9755 43.7105 68.8844 42.4492 68.8844C41.1879 68.8844 40.1875 67.9755 40.1875 66.8296V65.9603H39.7961C35.6208 65.9603 32.1847 62.7595 32.1847 58.808C32.1847 57.6621 33.1851 56.7533 34.4465 56.7533C35.7078 56.7533 36.7081 57.6621 36.7081 58.808C36.7081 60.4677 38.0999 61.8507 39.7961 61.8507H40.1875V55.1727L36.8821 54.1058C34.8814 53.4735 32.1847 52.13 32.1847 47.9414C32.1847 44.3456 35.2728 41.461 39.1002 41.461H40.1875V40.5916C40.1875 39.4457 41.1879 38.5369 42.4492 38.5369C43.7105 38.5369 44.7108 39.4457 44.7108 40.5916V41.461H45.1022C49.2776 41.461 52.7135 44.6617 52.7135 48.6132C52.7135 49.7591 51.7132 50.668 50.4519 50.668C49.1906 50.668 48.1902 49.7591 48.1902 48.6132C48.1902 46.9535 46.7985 45.5705 45.1022 45.5705H44.7108V52.2486L48.0163 53.3155Z" fill="#0072B2"/>
<path d="M36.7149 47.9375C36.7149 49.5972 37.2368 49.8342 38.3676 50.2294L40.1943 50.8221V45.5666H39.107C37.7587 45.5666 36.7149 46.6335 36.7149 47.9375Z" fill="#0072B2"/>
</svg>
